<?xml version="1.0" standalone="no"?><!DOCTYPE svg PUBLIC "-//W3C//DTD SVG 1.1//EN" "http://www.w3.org/Graphics/SVG/1.1/DTD/svg11.dtd"><svg t="1747363468410" class="icon" viewBox="0 0 1024 1024" version="1.1" xmlns="http://www.w3.org/2000/svg" p-id="1802" xmlns:xlink="http://www.w3.org/1999/xlink" width="200" height="200"><path d="M301.384 896.779h-81.526C119.197 788.057 67.845 661.224 65.803 516.332c6.075-150.994 57.426-280.864 154.055-389.587h78.49c-96.633 118.771-146.935 248.642-150.967 389.531 0 142.96 66.458 269.793 169.109 380.448l-15.106 0.055z m503.254 0h-77.535c100.661-106.732 150.02-233.569 150.02-380.447-4.03-140.945-53.39-270.816-150.02-389.587h80.572C902.264 233.481 952.62 363.296 958.64 516.276c-1.989 144.947-53.341 271.78-154.056 380.448l0.054 0.055zM385.055 263.52c-0.003-15.058 12.059-27.34 27.112-27.61h200.845c15.244 0 27.603 12.364 27.603 27.61 0 15.245-12.358 27.605-27.603 27.605H412.167c-15.054-0.269-27.116-12.552-27.112-27.605z m0 496.931c-0.003-15.059 12.059-27.341 27.112-27.609h200.845c15.244 0 27.603 12.359 27.603 27.609 0 15.246-12.358 27.605-27.603 27.605H412.167c-15.054-0.269-27.116-12.551-27.112-27.605z m89.762-469.326h73.55v441.717h-73.55V291.125z m-3.776 0" p-id="1803"></path></svg>