<?xml version="1.0" standalone="no"?><!DOCTYPE svg PUBLIC "-//W3C//DTD SVG 1.1//EN" "http://www.w3.org/Graphics/SVG/1.1/DTD/svg11.dtd"><svg t="1746688657802" class="icon" viewBox="0 0 1024 1024" version="1.1" xmlns="http://www.w3.org/2000/svg" p-id="9273" xmlns:xlink="http://www.w3.org/1999/xlink" width="200" height="200"><path d="M153.673143 877.714286C58.843429 784.786286 0 655.268571 0 512 0 229.229714 229.229714 0 512 0s512 229.229714 512 512c0 143.268571-58.843429 272.786286-153.673143 365.714286H1005.714286a18.285714 18.285714 0 0 1 18.285714 18.285714v109.714286a18.285714 18.285714 0 0 1-18.285714 18.285714H621.714286a18.285714 18.285714 0 0 1-15.542857-8.649143l-2.742858 0.512V866.194286C761.161143 825.6 877.714286 682.422857 877.714286 512c0-201.984-163.730286-365.714286-365.714286-365.714286S146.285714 310.016 146.285714 512c0 170.422857 116.553143 313.6 274.285715 354.194286v149.668571l-2.742858-0.512A18.285714 18.285714 0 0 1 402.285714 1024H18.285714a18.285714 18.285714 0 0 1-18.285714-18.285714v-109.714286a18.285714 18.285714 0 0 1 18.285714-18.285714h135.387429z" fill="#2c2c2c" p-id="9274"></path></svg>