<?xml version="1.0" standalone="no"?><!DOCTYPE svg PUBLIC "-//W3C//DTD SVG 1.1//EN" "http://www.w3.org/Graphics/SVG/1.1/DTD/svg11.dtd"><svg t="1675128960441" class="icon" viewBox="0 0 1024 1024" version="1.1" xmlns="http://www.w3.org/2000/svg" p-id="17897" xmlns:xlink="http://www.w3.org/1999/xlink" width="64" height="64"><path d="M637.910204 893.387755c-25.077551 0-47.542857-11.493878-62.693877-29.257143-15.15102 17.763265-37.616327 29.257143-62.693878 29.257143s-47.542857-11.493878-62.693878-29.257143c-15.15102 17.763265-37.616327 29.257143-62.693877 29.257143-45.453061 0-82.546939-37.093878-82.546939-82.546939v-34.481632C176.587755 739.787755 114.938776 658.285714 114.938776 527.673469c0-218.906122 178.155102-397.061224 397.061224-397.061224s397.061224 178.155102 397.061224 397.061224c0 130.612245-61.64898 212.114286-188.604081 248.163266v34.481632c0 45.97551-37.093878 83.069388-82.546939 83.069388z" fill="#568289" p-id="17898"></path><path d="M338.546939 415.869388c-57.469388 0-104.489796 46.497959-104.489796 104.489796s46.497959 103.967347 104.489796 103.967347 103.967347-46.497959 103.967347-103.967347-46.497959-104.489796-103.967347-104.489796zM685.97551 415.869388c-57.469388 0-103.967347 46.497959-103.967347 104.489796s46.497959 103.967347 103.967347 103.967347 103.967347-46.497959 103.967347-103.967347-46.497959-104.489796-103.967347-104.489796z" fill="#245156" p-id="17899"></path></svg>