<?xml version="1.0" standalone="no"?><!DOCTYPE svg PUBLIC "-//W3C//DTD SVG 1.1//EN" "http://www.w3.org/Graphics/SVG/1.1/DTD/svg11.dtd"><svg t="1686900831256" class="icon" viewBox="0 0 1024 1024" version="1.1" xmlns="http://www.w3.org/2000/svg" p-id="53372" xmlns:xlink="http://www.w3.org/1999/xlink" width="32" height="32"><path d="M747.424 634.208a16 16 0 0 0-22.624 0l-90.528 90.496a16 16 0 0 0 0 22.624l220.928 220.928a79.936 79.936 0 0 0 112.992-0.128c31.36-31.36 31.36-81.792 0.128-113.024l-220.896-220.896z" fill="#4FCAC3" p-id="53373"></path><path d="M432 800C228.768 800 64 635.232 64 432S228.768 64 432 64 800 228.768 800 432 635.232 800 432 800z" fill="#84EBF1" p-id="53374"></path><path d="M432 736a304 304 0 1 0 0-608 304 304 0 0 0 0 608z" fill="#FFF5E8" p-id="53375"></path><path d="M590.4 316.128a96.128 96.128 0 0 1 0 135.776l-158.368 158.4-158.4-158.4a96.064 96.064 0 0 1 0-135.776 96.128 96.128 0 0 1 135.776 0l22.624 22.624 22.624-22.624a96.064 96.064 0 0 1 135.776 0z" fill="#F83B57" p-id="53376"></path></svg>