<svg width="24" height="24" viewBox="0 0 24 24" fill="none" xmlns="http://www.w3.org/2000/svg">
<path fill-rule="evenodd" clip-rule="evenodd" d="M12 5.31868C7.74282 5.31868 4.29169 8.95944 4.29169 13.4506C4.29169 13.8147 4.01186 14.1099 3.66669 14.1099C3.32151 14.1099 3.04169 13.8147 3.04169 13.4506C3.04169 8.23116 7.05247 4 12 4C16.9476 4 20.9583 8.23116 20.9583 13.4506C20.9583 18.6699 16.9476 22.9011 12 22.9011C11.6548 22.9011 11.375 22.6059 11.375 22.2418C11.375 21.8776 11.6548 21.5824 12 21.5824C16.2572 21.5824 19.7083 17.9417 19.7083 13.4506C19.7083 8.95944 16.2572 5.31868 12 5.31868Z" fill="#575B66"/>
<path d="M2 12.1319C2 11.4036 2.55964 10.8132 3.25 10.8132C3.94036 10.8132 4.5 11.4036 4.5 12.1319V13.8901C4.5 14.6184 3.94036 15.2088 3.25 15.2088C2.55964 15.2088 2 14.6184 2 13.8901V12.1319Z" fill="#575B66"/>
<path d="M19.5 12.1319C19.5 11.4036 20.0596 10.8132 20.75 10.8132C21.4404 10.8132 22 11.4036 22 12.1319V13.8901C22 14.6184 21.4404 15.2088 20.75 15.2088C20.0596 15.2088 19.5 14.6184 19.5 13.8901V12.1319Z" fill="#575B66"/>
<path d="M13.6667 22.2418C13.6667 23.2128 12.9205 24 12 24C11.0796 24 10.3334 23.2128 10.3334 22.2418C10.3334 21.2707 11.0796 20.4835 12 20.4835C12.9205 20.4835 13.6667 21.2707 13.6667 22.2418Z" fill="#575B66"/>
<path fill-rule="evenodd" clip-rule="evenodd" d="M14.0369 11.894C13.9325 12.1074 13.6845 12.1932 13.4803 12.0855C13.2745 11.9769 13.1911 11.7129 13.294 11.4957L13.6667 11.6923C13.294 11.4957 13.2941 11.4955 13.2942 11.4953L13.2945 11.4948L13.295 11.4937L13.2961 11.4914L13.2989 11.4857L13.3066 11.4706C13.3127 11.4589 13.3207 11.444 13.3309 11.4264C13.3511 11.3912 13.3798 11.3449 13.418 11.2912C13.4942 11.1841 13.6091 11.0461 13.771 10.9095C14.0999 10.6319 14.6071 10.3736 15.3333 10.3736C16.0596 10.3736 16.5667 10.6319 16.8957 10.9095C17.0576 11.0461 17.1725 11.1841 17.2487 11.2912C17.2869 11.3449 17.3156 11.3912 17.3358 11.4264C17.346 11.444 17.354 11.4589 17.3601 11.4706L17.3678 11.4857L17.3706 11.4914L17.3717 11.4937L17.3722 11.4948L17.3725 11.4953C17.3726 11.4955 17.3727 11.4957 17 11.6923L17.3727 11.4957C17.4756 11.7129 17.3922 11.9769 17.1864 12.0855C16.9821 12.1932 16.7342 12.1074 16.6298 11.894M16.6276 11.8894L16.6278 11.8898L16.6281 11.8906L16.6288 11.892L16.6297 11.8939C16.6302 11.8947 16.6302 11.8949 16.6299 11.8943C16.6299 11.8942 16.6298 11.8941 16.6298 11.894C16.629 11.8925 16.6269 11.8886 16.6235 11.8827C16.6161 11.8698 16.6025 11.8474 16.582 11.8187C16.541 11.761 16.4737 11.6792 16.3751 11.596C16.1833 11.4341 15.8571 11.2527 15.3333 11.2527C14.8096 11.2527 14.4834 11.4341 14.2916 11.596C14.193 11.6792 14.1257 11.761 14.0847 11.8187C14.0642 11.8474 14.0506 11.8698 14.0432 11.8827C14.0397 11.8886 14.0377 11.8925 14.0369 11.894M16.6275 11.8893C16.6275 11.8893 16.6275 11.8893 16.6275 11.8893L16.6276 11.8894C16.6276 11.8894 16.6276 11.8894 16.6275 11.8893Z" fill="#575B66"/>
<path fill-rule="evenodd" clip-rule="evenodd" d="M7.37023 11.894C7.26584 12.1074 7.01788 12.1932 6.81367 12.0855C6.60785 11.9769 6.52442 11.7129 6.62733 11.4957L7.00001 11.6923C6.62733 11.4957 6.62744 11.4955 6.62756 11.4953L6.62779 11.4948L6.62829 11.4937L6.62942 11.4914L6.63221 11.4857L6.6399 11.4706C6.646 11.4589 6.65406 11.444 6.66419 11.4264C6.68445 11.3912 6.71316 11.3449 6.75131 11.2912C6.82748 11.1841 6.94246 11.0461 7.1043 10.9095C7.43327 10.6319 7.94046 10.3736 8.66668 10.3736C9.39289 10.3736 9.90008 10.6319 10.229 10.9095C10.3909 11.0461 10.5059 11.1841 10.582 11.2912C10.6202 11.3449 10.6489 11.3912 10.6692 11.4264C10.6793 11.444 10.6874 11.4589 10.6934 11.4706L10.7011 11.4857L10.7039 11.4914L10.7051 11.4937L10.7056 11.4948L10.7058 11.4953C10.7059 11.4955 10.706 11.4957 10.3333 11.6923L10.706 11.4957C10.8089 11.7129 10.7255 11.9769 10.5197 12.0855C10.3155 12.1932 10.0675 12.1074 9.96312 11.894M9.96091 11.8894L9.96108 11.8898L9.96147 11.8906L9.96214 11.892L9.96307 11.8939C9.96351 11.8947 9.96358 11.8949 9.96327 11.8943C9.96323 11.8942 9.96318 11.8941 9.96312 11.894C9.96235 11.8925 9.96028 11.8886 9.95684 11.8827C9.94942 11.8698 9.93581 11.8474 9.91537 11.8187C9.87436 11.761 9.80704 11.6792 9.70847 11.596C9.51661 11.4341 9.19046 11.2527 8.66668 11.2527C8.14289 11.2527 7.81674 11.4341 7.62488 11.596C7.52631 11.6792 7.459 11.761 7.41798 11.8187C7.39754 11.8474 7.38393 11.8698 7.37652 11.8827C7.37307 11.8886 7.371 11.8925 7.37023 11.894M9.96088 11.8893C9.96088 11.8893 9.96088 11.8893 9.96088 11.8893L9.96091 11.8894C9.9609 11.8894 9.96089 11.8894 9.96088 11.8893Z" fill="#575B66"/>
<path fill-rule="evenodd" clip-rule="evenodd" d="M10.7036 17.6445C10.5992 17.4311 10.3512 17.3453 10.147 17.453C9.94117 17.5616 9.85775 17.8256 9.96066 18.0427L10.3333 17.8462C9.96066 18.0427 9.96077 18.043 9.96088 18.0432L9.96112 18.0437L9.96162 18.0447L9.96275 18.0471L9.96553 18.0528L9.97323 18.0679C9.97933 18.0796 9.98738 18.0944 9.99752 18.1121C10.0178 18.1472 10.0465 18.1936 10.0846 18.2473C10.1608 18.3544 10.2758 18.4924 10.4376 18.629C10.7666 18.9066 11.2738 19.1648 12 19.1648C12.7262 19.1648 13.2334 18.9066 13.5624 18.629C13.7242 18.4924 13.8392 18.3544 13.9154 18.2473C13.9535 18.1936 13.9822 18.1472 14.0025 18.1121C14.0126 18.0944 14.0207 18.0796 14.0268 18.0679L14.0345 18.0528L14.0373 18.0471L14.0384 18.0447L14.0389 18.0437L14.0391 18.0432C14.0392 18.043 14.0393 18.0427 13.6667 17.8462L14.0393 18.0427C14.1423 17.8256 14.0588 17.5616 13.853 17.453C13.6488 17.3453 13.4008 17.4311 13.2964 17.6445M13.2942 17.6491L13.2944 17.6487L13.2948 17.6479L13.2955 17.6465L13.2964 17.6446C13.2968 17.6437 13.2969 17.6436 13.2966 17.6442C13.2966 17.6443 13.2965 17.6444 13.2964 17.6445C13.2957 17.6459 13.2936 17.6498 13.2902 17.6558C13.2827 17.6687 13.2691 17.691 13.2487 17.7198C13.2077 17.7775 13.1404 17.8593 13.0418 17.9425C12.8499 18.1044 12.5238 18.2857 12 18.2857C11.4762 18.2857 11.1501 18.1044 10.9582 17.9425C10.8596 17.8593 10.7923 17.7775 10.7513 17.7198C10.7309 17.691 10.7173 17.6687 10.7098 17.6558C10.7064 17.6498 10.7043 17.6459 10.7036 17.6445M13.2942 17.6491C13.2942 17.6491 13.2942 17.6491 13.2942 17.6491L13.2942 17.6491C13.2942 17.6491 13.2942 17.6491 13.2942 17.6491Z" fill="#FD40C8"/>
</svg>
