<?xml version="1.0" standalone="no"?><!DOCTYPE svg PUBLIC "-//W3C//DTD SVG 1.1//EN" "http://www.w3.org/Graphics/SVG/1.1/DTD/svg11.dtd"><svg t="1740048442212" class="icon" viewBox="0 0 1221 1024" version="1.1" xmlns="http://www.w3.org/2000/svg" p-id="5309" xmlns:xlink="http://www.w3.org/1999/xlink" width="38.15625" height="32"><path d="M1215.052624 550.261855S1173.03131 291.975678 801.178911 65.567739c-25.538816-15.576866-51.62101-27.893458-51.62101-27.893458-8.512939-3.98478-27.531205-13.041097-48.179609-19.923899-25.176563-8.512939-60.496201-20.648404-102.698641-17.025877-35.138512 2.898022-60.133949 15.576866-105.958916 38.398787-12.859971 6.520549-25.901068 13.765603-25.901068 13.765603-14.671234 10.324202-28.436837 17.207003-29.342469 17.750382-9.237444 4.709285-172.613413 101.793009-268.972631 203.586019C70.877463 377.467316-36.711589 568.917869 12.192525 731.025953c17.569256 58.322685 52.526642 103.24202 56.330296 107.951306 11.954339 15.214614 52.707768 63.756476 162.470337 112.479464 168.26638 74.624057 324.759548 76.073068 401.375994 70.639277 26.625574-1.811264 66.654497-3.441401 106.321168-7.788433 124.796056-13.40335 241.079173-52.526642 341.604298-128.418583 59.59057-45.100461 101.24963-98.351609 123.165919-159.753442 26.987826-75.348562 17.025877-141.45968 11.41096-175.873687zM425.522859 130.773226c36.22527-22.097415 73.537299-42.20244 111.936085-60.133949 8.694065-3.98478 18.112635-6.882801 26.082195-11.954339 21.191783-13.222224 43.289198-14.852361 67.379002-9.780823 45.462714 9.599697 89.295291 21.916288 128.418583 49.085241 11.954339 8.331812 10.505328 15.939119 5.252664 25.538816-5.796043 10.324202-13.765603 17.207003-26.263321 10.867581-7.42618-3.803653-13.40335-10.505328-21.916288-12.497719-19.38052-4.709285-38.21766 5.071538-48.360736 25.538816-5.97717 12.316592-11.41096 24.633184-21.191783 34.776259-9.056318 9.237444-15.576866 9.237444-22.640794-1.630137-5.614917-8.512939-10.867581-17.38813-19.018267-23.908678-5.071538-4.165906-10.867581-5.796043-16.84475-6.520549-11.954339 1.267884-19.923899 7.788433-25.719942 17.750383-5.97717 10.324202-11.954339 20.648404-18.293762 30.791479-6.158296 9.41857-13.041097 8.331812-17.750382-0.905631-6.520549-12.678845-11.592086-26.082195-17.931509-38.76104-10.686455-21.191783-19.561646-22.82192-38.036534-8.150685-7.969559 6.339422-15.939119 12.859971-24.81431 17.750382-9.237444 5.252664-19.923899 11.048707-28.255711-1.630137-6.882801-10.505328-2.535769-29.704722 7.96956-36.22527z m543.016801 752.217736c-13.222224 7.969559-22.459668 13.765603-23.727552 14.490108-97.627103 60.133949-293.968068 67.197876-293.968068 67.197876-106.864547 4.347032-211.917831-2.716895-314.978725-31.334858-70.277024-19.561646-136.388142-47.273978-190.907174-96.902598-2.173516-1.99239-5.071538-3.441401-6.339422-5.796043-2.898022-5.796043-16.120245-8.150686-7.96956-17.025877 7.788433-8.694065 19.923899-20.467278 30.972606-9.418571 25.901068 25.901068 49.990873 17.931509 75.891941 1.630137 12.859971-7.969559 25.719942-6.339422 36.225271 4.890412 20.467278 21.735162 44.738209 22.82192 71.726035 14.308982 16.482498-5.252664 33.508375-9.056318 50.171999-13.40335 19.018267-4.890411 37.493155-5.071538 55.60579 4.347032 11.41096 5.796043 24.270931 9.056318 37.130902 6.158296 35.681891-7.969559 71.363782-4.709285 107.045673 0 47.817357 6.701675 96.178092 3.260274 143.45207 6.882801 72.812793 5.433791 144.357702-5.252664 216.627117-3.622527 28.255711 0.724505 56.511422 1.449011 88.027406 13.222224-17.569256 10.143076-43.470324 25.357689-74.986309 44.375956z m112.66059-101.068504c-2.898022 2.716895-6.158296 4.165906-6.158296 4.165906-5.252664 1.99239-10.867581 1.086758-16.482498 0-45.824967-8.694065-91.83106-12.135466-138.561658-9.41857-21.735162 1.267884-43.470324 2.716895-65.02436 4.890411-26.263321 2.716895-52.164389 6.158296-78.608837-1.44901-14.490108-4.165906-30.610353-3.079148-45.64384-1.086759-52.164389 7.063928-103.24202-1.449011-154.138525-8.694064-26.8067-3.803653-52.707768-2.535769-78.42771 4.347032-13.222224 3.441401-26.8067 5.614917-39.485545-1.086758-24.270931-12.678845-49.809747-10.324202-75.529688-6.339422-9.237444 1.449011-18.474888 3.260274-27.350079 5.977169-26.444447 8.150686-50.353126 10.867581-71.907162-12.135465-12.678845-13.584476-32.240491-14.308982-50.715378-6.701675-9.056318 3.803653-18.474888 7.42618-26.444447 12.859971-11.048707 7.42618-18.837141 6.339422-28.79909-2.173517-20.648404-17.569256-38.21766-17.931509-59.228317-0.543379-9.237444 7.607307-11.229834 5.252664-12.135466 5.252665-15.033487 0-30.79148-59.04719-34.414006-106.683421-11.592086-145.263334 80.601226-269.516011 113.928475-314.435346 19.199393-25.901068 44.19483-50.171999 94.366829-98.532735 43.289198-42.021313 72.088288-65.386613 92.917818-57.235927 14.308982 5.614917 13.946729 21.554036 33.689501 27.531205 12.497718 3.803653 30.429227 1.99239 44.013703-5.614916 6.520549-3.622527 13.584476-7.245054 18.474888-12.316592 12.678845-13.041097 18.293761-6.882801 24.270931 5.252664 5.97717 12.135466 10.505328 25.176563 19.561646 35.863017 11.773213 14.127855 24.633184 15.214614 38.761039 2.716896 9.961949-8.694065 16.120245-19.561646 22.459668-30.610354 9.056318-16.120245 15.214614-16.301372 27.350079-1.630137 0.724505 0.905632 1.449011 1.811264 1.99239 2.716895 17.931509 29.885848 44.19483 27.350079 66.292244 0 8.331812-10.324202 14.852361-21.916288 23.3653-32.059364 7.969559-9.41857 18.837141-12.135466 31.334858-6.520548 17.207003 7.969559 37.312028 8.875191 45.281588 8.512938 10.143076-0.543379 24.452057-6.339422 41.115682-31.515985 43.289198 22.097415 76.073068 45.462714 98.713861 63.213097 51.077631 40.21005 83.499248 79.333342 107.951306 109.038063 17.38813 21.191783 38.579913 46.911725 61.220706 84.40488 39.304418 64.843234 76.43532 126.06394 73.537299 207.389672 0 0-3.441401 96.540345-71.544909 162.651463z" fill="#522B16" p-id="5310"></path><path d="M1017.987154 327.476443c-24.270931-29.704722-56.873674-68.828013-107.951306-109.038063-22.640794-17.750382-55.424663-41.115682-98.713861-63.213097-16.663624 25.176563-30.972606 30.972606-41.115682 31.515985-7.969559 0.362253-28.074584-0.724505-45.281588-8.512938-12.497718-5.796043-23.365299-2.898022-31.334858 6.520548-8.694065 10.143076-15.033487 21.735162-23.3653 32.059364-21.916288 27.350079-48.360736 29.885848-66.292244 0-0.543379-0.905632-1.267884-1.811264-1.99239-2.716895-12.135466-14.852361-18.293761-14.490108-27.350079 1.630137-6.158296 11.048707-12.497718 22.097415-22.459668 30.610354-14.127855 12.316592-26.987826 11.41096-38.761039-2.716896-9.056318-10.867581-13.584476-23.727552-19.561646-35.863017-5.97717-12.135466-11.773213-18.474888-24.270931-5.252664-4.890411 5.071538-11.954339 8.512939-18.474888 12.316592-13.584476 7.607307-31.515985 9.41857-44.013703 5.614916-19.923899-5.97717-19.561646-21.916288-33.689501-27.531205-20.82953-8.150686-49.62862 15.214614-92.917818 57.235927-50.171999 48.541862-75.167436 72.812793-94.366829 98.532735-33.327249 44.919335-125.339435 169.172012-113.928475 314.435346 3.803653 47.817357 19.38052 106.502295 34.414006 106.683421 0.905632 0 2.898022 2.173516 12.135466-5.252665 21.010657-17.38813 38.579913-17.025877 59.228317 0.543379 10.143076 8.512939 17.750382 9.599697 28.79909 2.173517 7.969559-5.433791 17.38813-9.056318 26.444447-12.859971 18.293761-7.607307 37.855407-7.063928 50.715378 6.701675 21.554036 23.003047 45.462714 20.286151 71.907162 12.135465 8.875191-2.716895 18.112635-4.528159 27.350079-5.977169 25.719942-3.98478 51.258757-6.339422 75.529688 6.339422 12.678845 6.520549 26.082195 4.528159 39.485545 1.086758 25.719942-6.701675 51.62101-8.150686 78.42771-4.347032 51.077631 7.245054 101.974136 15.757993 154.138525 8.694064 15.033487-1.99239 31.153732-3.260274 45.64384 1.086759 26.444447 7.788433 52.345515 4.347032 78.608837 1.44901 21.554036-2.354643 43.289198-3.803653 65.02436-4.890411 46.549472-2.716895 92.736692 0.724505 138.561658 9.41857 5.614917 1.086758 11.048707 2.173516 16.482498 0 0 0 3.441401-1.449011 6.158296-4.165906 68.284634-66.111118 71.544909-162.651463 71.544909-162.651463 2.898022-81.325732-34.23288-142.546438-73.537299-207.389672-22.82192-37.493155-43.832577-63.213097-61.220706-84.40488z" fill="#9B5240" p-id="5311"></path><path d="M739.052573 828.834183c-47.455104-3.622527-95.81584-0.362253-143.45207-6.882801-35.681891-4.890411-71.182656-8.150686-107.045674 0-12.859971 2.898022-25.719942-0.181126-37.130902-6.158296-18.112635-9.41857-36.587523-9.237444-55.60579-4.347033-16.844751 4.347032-33.689501 8.331812-50.171999 13.40335-26.8067 8.512939-51.258757 7.42618-71.726035-14.308981-10.324202-11.048707-23.365299-12.859971-36.22527-4.890412-25.901068 16.301372-49.809747 24.270931-75.891941-1.630137-11.048707-11.048707-23.003047 0.724505-30.972606 9.41857-7.969559 8.875191 5.252664 11.41096 7.969559 17.025877 1.267884 2.354643 4.165906 3.803653 6.339422 5.796043 54.337905 49.62862 120.63015 77.340952 190.907174 96.902598 103.060894 28.79909 208.114178 35.681891 314.978725 31.334859 0 0 196.340965-7.063928 293.968068-67.197876 1.267884-0.724505 10.505328-6.520549 23.727552-14.490108a2927.001835 2927.001835 0 0 1 74.98631-44.375956c-31.515985-11.773213-59.771696-12.497718-88.027407-13.222224-72.088288-1.630137-143.814323 9.056318-216.627116 3.622527zM258.524363 887.519121c-8.331812 0-13.765603-5.97717-14.127855-19.018267-0.362253-15.033487 6.701675-21.554036 15.576866-24.089805 9.961949-2.898022 13.946729 5.97717 13.946729 18.474888 0 13.765603-4.528159 23.184173-15.39574 24.633184z m187.465774 31.697111c-1.99239 8.875191 0.724505 25.538816-12.859971 24.089805-15.033487-1.630137-18.656014-19.742772-20.648404-33.327249-1.449011-9.599697 6.339422-19.199393 17.025877-18.293761 14.671234 1.267884 17.569256 12.859971 16.482498 27.531205z m103.785399-57.0548c-2.354643 11.954339-2.535769 27.712332-15.576866 28.436837-8.875191-3.260274-12.135466-13.40335-10.324202-24.270931 1.99239-12.497718 4.528159-27.893458 17.207003-25.357689 7.42618 1.630137 10.867581 10.867581 8.694065 21.191783z m103.604273 81.86911c-11.954339 1.630137-17.025877-9.599697-18.112635-24.633183-1.086758-15.39574 2.898022-26.444447 15.214613-28.436837 11.592086 0.905632 17.025877 10.867581 16.120245 26.625573-0.724505 11.592086-2.354643 24.995436-13.041097 26.444447z m102.517515-38.761039c-13.40335 0-8.150686-17.750382-9.056318-28.074584-1.086758-15.033487 4.709285-24.81431 15.39574-27.168953 12.135466 1.449011 17.025877 10.143076 15.576866 21.191783-1.99239 15.939119-6.701675 34.23288-22.097415 34.051754z m123.890424-5.977169c-6.701675-0.362253-7.969559-5.071538-7.245054-9.237444 2.173516-15.39574 9.780823-28.074584 27.712331-33.508375 7.42618-2.173516 13.765603 1.086758 14.308982 9.056317 0.543379 7.788433-26.625574 34.23288-34.776259 33.689502z" fill="#C58756" p-id="5312"></path><path d="M445.80901 168.628633c8.875191-4.890411 16.844751-11.41096 24.81431-17.750382 18.474888-14.671234 27.350079-13.222224 38.036534 8.150685 6.339422 12.678845 11.41096 26.082195 17.931509 38.76104 4.890411 9.41857 11.773213 10.505328 17.750382 0.905631 6.520549-9.961949 12.497718-20.467278 18.293762-30.791479 5.796043-9.961949 13.765603-16.482498 25.719942-17.750383 5.97717 0.724505 11.773213 2.354643 16.84475 6.520549 7.969559 6.520549 13.40335 15.39574 19.018267 23.908678 7.063928 10.867581 13.765603 10.867581 22.640794 1.630137 9.780823-10.143076 15.214614-22.459668 21.191783-34.776259 10.143076-20.467278 28.980216-30.248101 48.360736-25.538816 8.512939 1.99239 14.490108 8.694065 21.916288 12.497719 12.316592 6.339422 20.467278-0.362253 26.263321-10.867581 5.252664-9.599697 6.701675-17.207003-5.252664-25.538816-39.123292-27.168953-82.955869-39.666671-128.418583-49.085241-24.089805-5.071538-46.18722-3.441401-67.379002 9.780823-8.150686 5.071538-17.38813 7.969559-26.082195 11.954339-38.398786 17.931509-75.710815 38.036534-111.936085 60.133949-10.505328 6.339422-15.033487 25.538816-7.96956 36.22527 8.331812 12.678845 19.018267 6.882801 28.255711 1.630137z" fill="#E3B780" p-id="5313"></path><path d="M900.436152 856.546515c-17.931509 5.433791-25.719942 18.112635-27.712332 33.508375-0.543379 4.165906 0.543379 8.875191 7.245054 9.237444 8.150686 0.543379 35.138512-25.901068 34.77626-33.689502-0.362253-7.969559-6.701675-11.41096-14.308982-9.056317zM429.507639 891.866153a15.830443 15.830443 0 0 0-17.025877 18.293762c1.99239 13.584476 5.614917 31.697111 20.648404 33.327248 13.584476 1.449011 10.867581-15.214614 12.859971-24.089804 1.086758-14.671234-1.811264-26.263321-16.482498-27.531206zM541.081471 841.150775c-12.678845-2.716895-15.214614 12.859971-17.207003 25.357689-1.630137 10.867581 1.449011 21.010657 10.324202 24.270931 13.041097-0.724505 13.041097-16.482498 15.576866-28.436837 2.173516-10.324202-1.267884-19.561646-8.694065-21.191783zM259.973374 844.411049c-8.875191 2.535769-16.120245 9.056318-15.576866 24.089805 0.362253 13.041097 5.796043 19.018267 14.127855 19.018267 10.867581-1.630137 15.39574-11.048707 15.39574-24.633184 0-12.497718-3.98478-21.372909-13.946729-18.474888zM762.598999 850.025966c-10.686455 2.354643-16.663624 12.135466-15.39574 27.168953 0.724505 10.324202-4.528159 27.893458 9.056317 28.074584 15.39574 0 20.105025-18.112635 22.097415-34.051754 1.449011-11.048707-3.441401-19.742772-15.576866-21.191783zM650.481787 890.960522c-12.316592 2.173516-16.301372 13.041097-15.214613 28.436837 1.086758 15.214614 6.158296 26.263321 18.112635 24.633183 10.686455-1.449011 12.316592-14.852361 13.041097-26.444447 0.905632-15.757993-4.347032-25.719942-16.120245-26.625573z" fill="#1C1D1D" p-id="5314"></path></svg>